# xmcd CD database file
#
# Track frame offsets:
#	150
#	21000
#	39650
#	59100
#	80475
#	101325
#	119975
#
# Disc length: 1855 seconds
#
# Revision: 0
# Processed by: cddbd v1.5PL3 Copyright (c) Steve Scherf et al.
# Submitted via: CDex 1.51
#
DISCID=5f073d07
DTITLE=福島絹(あおきさやか) - らいむいろ戦奇譚キャラクターアルバム「福島絹(あおきさやか)」
DYEAR=2003
DGENRE=Anime
TTITLE0=初恋
TTITLE1=萌芽恋歌
TTITLE2=わたぼうし
TTITLE3=ショートストーリー
TTITLE4=初恋(カラオケ)
TTITLE5=萌芽恋歌(カラオケ)
TTITLE6=わたぼうし(カラオケ)
EXTD=YEAR: 20030625
EXTT0=
EXTT1=
EXTT2=
EXTT3=
EXTT4=
EXTT5=
EXTT6=
PLAYORDER=
